<svg width="42" height="38" viewBox="0 0 42 38" fill="none" xmlns="http://www.w3.org/2000/svg">
<path d="M11.7619 32.5347C9.93681 32.5347 8.1117 30.941 7.19915 30.258C2.63637 27.0707 1.26754 25.9323 0.35498 25.2493V34.8113C0.35498 36.0685 1.37661 37.088 2.63637 37.088H20.8875C22.1472 37.088 23.1689 36.0685 23.1689 34.8113V25.2493C22.2563 25.9323 20.8875 27.0707 16.3247 30.258C15.4121 30.941 13.587 32.5347 11.7619 32.5347ZM20.8875 18.8747H2.63637C1.37661 18.8747 0.35498 19.8942 0.35498 21.1513V22.2897C2.18009 23.6557 1.95195 23.6557 8.56798 28.4367C9.2524 28.892 10.6212 30.258 11.7619 30.258C12.9026 30.258 14.2715 28.892 14.9559 28.6643C21.5719 23.8833 21.3438 23.8833 23.1689 22.5173V21.1513C23.1689 19.8942 22.1472 18.8747 20.8875 18.8747ZM39.1386 12.0447H16.3247C15.0649 12.0447 14.0433 13.0642 14.0433 14.3214V16.598H20.8875C23.2551 16.598 25.2071 18.4065 25.4296 20.7117L25.4503 20.696V30.258H39.1386C40.3983 30.258 41.42 29.2385 41.42 27.9813V14.3214C41.42 13.0642 40.3983 12.0447 39.1386 12.0447ZM36.8572 21.1513H32.2944V16.598H36.8572V21.1513ZM11.7619 14.3214C11.7619 11.8106 13.8088 9.76803 16.3247 9.76803H32.2944V2.93804C32.2944 1.68089 31.2728 0.661377 30.013 0.661377H7.19915C5.93939 0.661377 4.91776 1.68089 4.91776 2.93804V16.598H11.7619V14.3214Z" fill="black"/>
</svg>
